<mxfile host="app.diagrams.net" modified="2023-08-23T18:56:06.025Z" agent="Mozilla/5.0 (Windows NT 10.0; Win64; x64) AppleWebKit/537.36 (KHTML, like Gecko) Chrome/116.0.0.0 Safari/537.36" etag="-V_hKNl-ax42qxYmqSH0" version="21.6.8" type="device">
  <diagram name="PÃ¡gina-1" id="yH82kzZYrmnkV-ky5-57">
    <mxGraphModel dx="1247" dy="701" grid="1" gridSize="10" guides="1" tooltips="1" connect="1" arrows="1" fold="1" page="1" pageScale="1" pageWidth="827" pageHeight="1169" math="0" shadow="0">
      <root>
        <mxCell id="0" />
        <mxCell id="1" parent="0" />
        <mxCell id="7ojrygWWQ4SpvBJNsACN-3" value="&amp;lt;&amp;lt;Interface&amp;gt;&amp;gt;&lt;br&gt;Navegador&lt;hr&gt;+ navegadorExibirPagina: void&lt;br&gt;+navegadorAdicionarNovaAba(link : Stirng): void&lt;br&gt;+navegadorAtualizarPagina: void" style="rounded=0;whiteSpace=wrap;html=1;" vertex="1" parent="1">
          <mxGeometry x="310" y="340" width="230" height="100" as="geometry" />
        </mxCell>
        <mxCell id="7ojrygWWQ4SpvBJNsACN-5" value="&amp;lt;&amp;lt;Interface&amp;gt;&amp;gt;&lt;br&gt;ReprodutorMusical&lt;hr&gt;+reprodutorTocar: void&lt;br&gt;+reprotudorPausar: void&lt;br&gt;+reprodutorSelecionarMusica(Musica: String): void" style="rounded=0;whiteSpace=wrap;html=1;" vertex="1" parent="1">
          <mxGeometry x="580" y="340" width="230" height="100" as="geometry" />
        </mxCell>
        <mxCell id="7ojrygWWQ4SpvBJNsACN-6" value="&amp;lt;&amp;lt;Interface&amp;gt;&amp;gt;&lt;br&gt;Telefone&lt;hr&gt;+telefoneLigar: void&lt;br&gt;+telefoneAtender: void&lt;br&gt;+telefoneIniciarCorreioVoz: void" style="rounded=0;whiteSpace=wrap;html=1;" vertex="1" parent="1">
          <mxGeometry x="40" y="340" width="230" height="100" as="geometry" />
        </mxCell>
        <mxCell id="7ojrygWWQ4SpvBJNsACN-7" value="Iphone&lt;hr&gt;" style="rounded=0;whiteSpace=wrap;html=1;" vertex="1" parent="1">
          <mxGeometry x="295" y="620" width="260" height="75" as="geometry" />
        </mxCell>
        <mxCell id="7ojrygWWQ4SpvBJNsACN-8" value="" style="endArrow=classic;html=1;rounded=0;exitX=0.5;exitY=0;exitDx=0;exitDy=0;" edge="1" parent="1" source="7ojrygWWQ4SpvBJNsACN-7">
          <mxGeometry width="50" height="50" relative="1" as="geometry">
            <mxPoint x="440" y="540" as="sourcePoint" />
            <mxPoint x="680" y="450" as="targetPoint" />
          </mxGeometry>
        </mxCell>
        <mxCell id="7ojrygWWQ4SpvBJNsACN-9" value="" style="endArrow=classic;html=1;rounded=0;exitX=0.5;exitY=0;exitDx=0;exitDy=0;" edge="1" parent="1" source="7ojrygWWQ4SpvBJNsACN-7">
          <mxGeometry width="50" height="50" relative="1" as="geometry">
            <mxPoint x="424.57" y="620" as="sourcePoint" />
            <mxPoint x="430" y="460" as="targetPoint" />
          </mxGeometry>
        </mxCell>
        <mxCell id="7ojrygWWQ4SpvBJNsACN-10" value="" style="endArrow=classic;html=1;rounded=0;exitX=0.5;exitY=0;exitDx=0;exitDy=0;" edge="1" parent="1" source="7ojrygWWQ4SpvBJNsACN-7">
          <mxGeometry width="50" height="50" relative="1" as="geometry">
            <mxPoint x="420" y="530" as="sourcePoint" />
            <mxPoint x="160" y="450" as="targetPoint" />
          </mxGeometry>
        </mxCell>
      </root>
    </mxGraphModel>
  </diagram>
</mxfile>
